<svg viewBox="0 0 512.00025 512.00025" xmlns="http://www.w3.org/2000/svg"><path d="m437.015625 437.03125c-18.636719 18.636719-39.4375 33.796875-61.585937 45.484375-.21875.117187-.472657-.027344-.496094-.273437-15.0625-175.109376-168.558594-312.738282-355.703125-312.738282-.984375 0-1.964844.003906-2.945313.015625-.628906.003907-1.070312-.621093-.859375-1.210937 12.390625-34.054688 32.226563-66.011719 59.542969-93.324219 99.976562-99.980469 262.070312-99.980469 362.046875 0 99.980469 99.976563 99.980469 262.070313 0 362.046875zm0 0" fill="#813873"/><path d="m484.371094 81.914062-54.574219 200.859376-54.25 199.679687c-35.703125 18.867187-74.929687 28.699219-114.308594 29.5-63.730469-1.320313-127.058593-26.289063-175.6875-74.921875-15.953125-15.949219-29.347656-33.488281-40.210937-52.101562-28.179688-61.375-30.800782-131.605469-7.855469-194.632813l210.460937-71.03125 202.527344-68.355469c7.445313-1.96875 38.316406 9.261719 33.898438 31.003906zm0 0" fill="#f8bb5e"/><path d="m343.742188 496.550781c-90.601563 32.984375-196.097657 13.15625-268.773438-59.519531s-92.503906-178.167969-59.519531-268.773438l433.050781-117.019531c7.449219-2.011719 14.277344 4.8125 12.261719 12.261719zm0 0" fill="#fbc56d"/><path d="m460.761719 63.5-6.546875 24.222656c-.847656.007813-1.714844.109375-2.59375.347656l-404.597656 109.335938c-18.921876 5.109375-33.453126 20.289062-37.722657 39.417969-4.359375 19.523437-6.40625 39.460937-6.148437 59.371093-6.753906-42.742187-2.652344-86.867187 12.296875-127.933593l433.050781-117.023438c7.449219-2.011719 14.277344 4.8125 12.261719 12.261719zm0 0" fill="#f8bb5e"/><path d="m460.761719 63.5-27.6875 102.464844c-10.28125 38.050781-14.882813 77.410156-13.65625 116.808594l2.429687 78.070312c.3125 11.695312-9.769531 20.980469-21.402344 19.710938-14.179687-1.554688-27.375 7.453124-31.09375 21.222656l-20.90625 77.371094c-19.871093-8.023438-42.066406-8.542969-62.226562-1.519532-15.25 5.308594-32.0625 1.515625-43.421875-9.960937-.109375-.109375-.21875-.222657-.328125-.332031-17.414062-17.414063-40.285156-26.023438-63.109375-25.851563-16.621094.125-31.449219-9.851563-38.085937-25.089844-4.296876-9.851562-10.46875-19.078125-18.527344-27.140625-8.0625-8.058594-17.289063-14.234375-27.144532-18.527344-15.257812-6.644531-25.195312-21.53125-25.085937-38.171874.152344-22.796876-8.460937-45.632813-25.851563-63.023438-.109374-.109375-.21875-.21875-.328124-.328125-11.476563-11.359375-15.273438-28.171875-9.960938-43.421875 7.019531-20.160156 6.5-42.351562-1.519531-62.226562l415.644531-112.316407c7.449219-2.011719 14.277344 4.8125 12.261719 12.261719zm0 0" fill="#fdf061"/><path d="m460.761719 63.5-6.402344 23.695312-384.820313 103.992188c-5.113281 1.378906-9.132812 5.246094-10.871093 10.246094-.007813.027344-.015625.054687-.027344.078125-5.308594 15.25-1.515625 32.0625 9.960937 43.425781.109376.105469.222657.214844.328126.328125 17.414062 17.414063 26.027343 40.285156 25.855468 63.105469-.128906 16.621094 9.847656 31.453125 25.085938 38.089844 9.851562 4.292968 19.082031 10.46875 27.140625 18.527343 8.0625 8.058594 14.234375 17.289063 18.527343 27.140625 6.648438 15.257813 21.535157 25.199219 38.175782 25.085938 22.792968-.152344 45.628906 8.460937 63.023437 25.855468.125.121094.246094.246094.371094.371094 11.292969 11.484375 28.101563 15.253906 43.308594 9.941406 14.773437-5.15625 30.636719-6.246093 45.882812-3.320312l-7.855469 29.085938c-19.875-8.023438-42.066406-8.542969-62.226562-1.519532-15.25 5.308594-32.0625 1.515625-43.421875-9.960937-.109375-.109375-.21875-.222657-.328125-.332031-17.414062-17.414063-40.285156-26.023438-63.109375-25.851563-16.621094.125-31.449219-9.851563-38.085937-25.089844-4.296876-9.851562-10.46875-19.078125-18.527344-27.140625-8.0625-8.058594-17.289063-14.234375-27.144532-18.527344-15.257812-6.644531-25.195312-21.53125-25.085937-38.171874.152344-22.796876-8.460937-45.632813-25.851563-63.023438-.109374-.109375-.21875-.21875-.328124-.328125-11.476563-11.359375-15.273438-28.171875-9.960938-43.421875 2.976562-8.546875 4.582031-17.460938 4.851562-26.40625.011719-.355469.023438-.730469.035157-1.109375.207031-11.789063-1.929688-23.613281-6.40625-34.710937l8.53125-2.304688 407.113281-110.011719c7.449219-2.011719 14.277344 4.8125 12.261719 12.261719zm0 0" fill="#fded32"/><path d="m233.417969 215.433594c16.570312 0 30.003906 13.433594 30.003906 30h20c11.046875 0 20 8.957031 20 20.003906 0 11.042969-8.953125 20-20 20h-20c0 16.566406-13.433594 30-30.003906 30-16.566407 0-30-13.433594-30-30v-40c0-16.570312 13.433593-30.003906 30-30.003906zm0 0" fill="#fdb44c"/><path d="m253.417969 285.4375h10c0 7.507812-2.761719 14.363281-7.320313 19.625-.855468.238281-1.75.375-2.679687.375-5.523438 0-10-4.476562-10-10s4.480469-10 10-10zm0-40.003906h10c0-7.507813-2.761719-14.363282-7.320313-19.625-.855468-.238282-1.75-.375-2.679687-.375-5.523438 0-10 4.476562-10 10 0 5.523437 4.480469 10 10 10zm0 0" fill="#fd8f01"/><path d="m165.800781 182.796875c19.359375 21.101563 17.949219 53.902344-3.148437 73.261719-21.101563 19.359375-53.898438 17.949218-73.261719-3.152344-19.359375-21.097656-17.949219-53.898438 3.152344-73.257812 21.097656-19.359376 53.898437-17.949219 73.257812 3.148437zm48.292969 167.933594c-21.101562 19.359375-22.511719 52.160156-3.148438 73.261719 19.359376 21.097656 52.15625 22.507812 73.257813 3.148437s22.511719-52.160156 3.148437-73.257813c-19.359374-21.101562-52.15625-22.511718-73.257812-3.152343zm178.359375-222.625c-19.363281-21.101563-52.160156-22.511719-73.261719-3.152344-21.101562 19.363281-22.511718 52.160156-3.148437 73.261719 19.359375 21.101562 52.15625 22.511718 73.257812 3.148437 21.101563-19.359375 22.511719-52.160156 3.152344-73.257812zm0 0" fill="#fc5e93"/><path d="m112.914062 254.398438c7.28125 7.339843 16.269532 12.050781 25.742188 14.105468-17.425781 3.789063-36.339844-1.507812-49.265625-15.59375-19.359375-21.101562-17.949219-53.902344 3.148437-73.261718 12.90625-11.839844 30.1875-15.898438 46.09375-12.445313-8.671874 1.882813-16.980468 6.011719-23.992187 12.445313-17.792969 16.328124-21.585937 42.207031-10.726563 62.574218.140626-2.863281 1.289063-5.683594 3.476563-7.871094 4.671875-4.671874 12.25-4.671874 16.921875 0 4.671875 4.671876 4.671875 12.25 0 16.921876-3.089844 3.089843-7.449219 4.125-11.398438 3.125zm19.859376-62.351563c-4.671876 4.671875-4.671876 12.25 0 16.921875 4.675781 4.671875 12.25 4.671875 16.921874 0 4.675782-4.671875 4.675782-12.25 0-16.921875-4.671874-4.671875-12.246093-4.671875-16.921874 0zm113.09375 230.308594c4.671874-4.671875 4.671874-12.25 0-16.921875-4.675782-4.671875-12.25-4.671875-16.921876 0-2.1875 2.1875-3.335937 5.007812-3.476562 7.871094-10.859375-20.367188-7.066406-46.246094 10.726562-62.574219 7.011719-6.433594 15.316407-10.558594 23.992188-12.445313-15.90625-3.453125-33.1875.605469-46.09375 12.445313-21.101562 19.359375-22.511719 52.160156-3.148438 73.261719 12.925782 14.085937 31.839844 19.382812 49.265626 15.59375-9.472657-2.054688-18.460938-6.765626-25.746094-14.105469 3.953125 1 8.308594-.035157 11.402344-3.125zm8.460937-59.226563c-4.675781 4.675782-4.675781 12.25 0 16.921875 4.671875 4.671875 12.246094 4.671875 16.921875 0 4.671875-4.671875 4.671875-12.246093 0-16.921875-4.675781-4.671875-12.25-4.671875-16.921875 0zm96.636719-166.550781c4.671875-4.671875 4.671875-12.25 0-16.921875-4.675782-4.671875-12.25-4.671875-16.921875 0-2.1875 2.1875-3.335938 5.007812-3.476563 7.871094-10.859375-20.363282-7.066406-46.246094 10.726563-62.574219 7.011719-6.433594 15.316406-10.558594 23.992187-12.445313-15.910156-3.449218-33.1875.605469-46.09375 12.445313-21.101562 19.363281-22.511718 52.160156-3.152344 73.261719 12.925782 14.085937 31.839844 19.382812 49.265626 15.597656-9.472657-2.058594-18.460938-6.769531-25.742188-14.109375 3.953125 1 8.3125-.035156 11.402344-3.125zm-2.359375-67.261719c-4.675781 4.671875-4.675781 12.25 0 16.921875 4.671875 4.671875 12.246093 4.671875 16.921875 0 4.671875-4.671875 4.671875-12.25 0-16.921875-4.675782-4.671875-12.25-4.671875-16.921875 0zm33.84375 33.84375c-4.675781-4.671875-12.25-4.671875-16.921875 0-4.675782 4.671875-4.675782 12.25 0 16.921875 4.671875 4.671875 12.246094 4.671875 16.921875 0 4.671875-4.671875 4.671875-12.25 0-16.921875zm0 0" fill="#fd3980"/><path d="m141.414062 304.660156c5.855469 5.859375 5.855469 15.355469 0 21.214844-5.859374 5.855469-15.359374 5.855469-21.214843 0-5.859375-5.859375-5.859375-15.355469 0-21.214844s15.355469-5.859375 21.214843 0zm238.4375-10.257812c-5.855468-5.859375-15.355468-5.859375-21.210937 0-5.859375 5.859375-5.859375 15.355468 0 21.214844 5.855469 5.855468 15.355469 5.855468 21.210937 0 5.859376-5.859376 5.859376-15.355469 0-21.214844zm-67.871093 43.925781c-5.855469 5.859375-5.855469 15.355469 0 21.214844 5.859375 5.859375 15.355469 5.859375 21.214843 0 5.859376-5.859375 5.859376-15.355469 0-21.214844-5.859374-5.855469-15.355468-5.855469-21.214843 0zm-128.140625-182.164063c-5.855469 5.859376-5.855469 15.355469 0 21.210938 5.859375 5.859375 15.355468 5.859375 21.214844 0 5.859374-5.855469 5.859374-15.355469 0-21.210938-5.859376-5.859374-15.355469-5.859374-21.214844 0zm80.492187 29.183594c-5.859375 5.855469-5.859375 15.355469 0 21.210938 5.855469 5.859375 15.355469 5.859375 21.210938 0 5.859375-5.855469 5.859375-15.355469 0-21.210938-5.855469-5.859375-15.355469-5.859375-21.210938 0zm0 0" fill="#22b27f"/></svg>